<?xml version="1.0" encoding="UTF-8"?>
<svg width="185px" height="46px" viewBox="0 0 185 46" version="1.1" xmlns="http://www.w3.org/2000/svg" xmlns:xlink="http://www.w3.org/1999/xlink">
    <title>Logo</title>
    <defs>
        <path d="M12.2291234,6.1849455 C12.2291234,9.60579916 9.49024538,12.3756311 6.11007715,12.3756311 C2.7362817,12.3756311 0,9.60579916 0,6.1849455 C0,2.76720106 2.7362817,-2.16219273e-14 6.11007715,-2.16219273e-14 C9.49024538,-2.16219273e-14 12.2291234,2.76720106 12.2291234,6.1849455 Z" id="path-1"></path>
        <path d="M12.2232227,6.1849455 C12.2232227,9.60579916 9.48788509,12.3756311 6.11172935,12.3756311 C2.73392141,12.3756311 0,9.60579916 0,6.1849455 C0,2.76720106 2.73392141,-2.16219273e-14 6.11172935,-2.16219273e-14 C9.48788509,-2.16219273e-14 12.2232227,2.76720106 12.2232227,6.1849455 Z" id="path-3"></path>
        <path d="M12.2291234,6.1914031 C12.2291234,9.60675584 9.49024538,12.3777836 6.11007715,12.3777836 C2.7362817,12.3777836 0,9.60675584 0,6.1914031 C0,2.76983194 2.7362817,0 6.11007715,0 C9.49024538,0 12.2291234,2.76983194 12.2291234,6.1914031 Z" id="path-5"></path>
        <path d="M12.2277072,6.1914031 C12.2277072,9.60675584 9.48788509,12.3777836 6.1145617,12.3777836 C2.73392141,12.3777836 0,9.60675584 0,6.1914031 C0,2.76983194 2.73392141,0 6.1145617,0 C9.48788509,0 12.2277072,2.76983194 12.2277072,6.1914031 Z" id="path-7"></path>
        <path d="M12.225819,6.1914031 C12.225819,9.60675584 9.49189758,12.3777836 6.11220141,12.3777836 C2.73533759,12.3777836 0,9.60675584 0,6.1914031 C0,2.76983194 2.73533759,0 6.11220141,0 C9.49189758,0 12.225819,2.76983194 12.225819,6.1914031 Z" id="path-9"></path>
        <path d="M12.2291234,6.1937948 C12.2291234,9.6086692 9.49024538,12.382567 6.11007715,12.382567 C2.7362817,12.382567 0,9.6086692 0,6.1937948 C0,2.77054945 2.7362817,0 6.11007715,0 C9.49024538,0 12.2291234,2.77054945 12.2291234,6.1937948 Z" id="path-11"></path>
        <path d="M12.225583,6.1937948 C12.225583,9.6086692 9.48764906,12.3818495 6.11149332,12.3818495 C2.73840596,12.3818495 0,9.6086692 0,6.1937948 C0,2.77054945 2.73840596,0 6.11149332,0 C9.48764906,0 12.225583,2.77054945 12.225583,6.1937948 Z" id="path-13"></path>
        <path d="M12.2222786,6.1937948 C12.2222786,9.71773088 9.51266811,12.382567 6.11031318,12.382567 C2.73533759,12.382567 0,9.6086692 0,6.1937948 C0,2.77054945 2.73533759,0 6.11031318,0 C9.4888292,0 12.2222786,2.77054945 12.2222786,6.1937948 Z" id="path-15"></path>
        <polygon id="path-17" points="14.2761679 25.4472949 8.68252171 25.4472949 8.68252171 15.4284485 0.00586755855 0.0751464728 6.06543455 0.0751464728 11.4801709 9.51280887 16.893019 0.0751464728 22.9537662 0.0751464728 14.2761679 15.4284485"></polygon>
        <path d="M20.9270201,10.1399605 C20.9270201,12.9700634 19.958122,15.3531569 18.0238661,17.2897193 C16.0858337,19.2258033 13.6542652,20.1934866 10.725384,20.1934866 C7.79815502,20.1934866 5.36493428,19.2258033 3.42949824,17.2897193 C1.49429824,15.3531569 0.524691988,12.9700634 0.524691988,10.1399605 C0.524691988,7.30722679 1.49429824,4.91815407 3.42949824,2.96963315 C5.36493428,1.02230808 7.79815502,0.0481672021 10.725384,0.0481672021 C13.6542652,0.0481672021 16.0858337,1.02230808 18.0238661,2.96963315 C19.958122,4.91815407 20.9270201,7.30722679 20.9270201,10.1399605 Z M5.93895628,10.1399605 C5.93895628,11.7364227 6.38788303,13.0360744 7.28337624,14.0401116 C8.18075768,15.0446271 9.32785757,15.5476024 10.725384,15.5476024 C12.1238546,15.5476024 13.2714265,15.0446271 14.1671557,14.0401116 C15.0645372,13.0360744 15.5118117,11.7364227 15.5118117,10.1399605 C15.5118117,8.54230253 15.0645372,7.23523651 14.1671557,6.21900165 C13.2714265,5.20204928 12.1238546,4.69405144 10.725384,4.69405144 C9.32785757,4.69405144 8.18075768,5.20204928 7.28337624,6.21900165 C6.38788303,7.23523651 5.93895628,8.54230253 5.93895628,10.1399605 Z" id="path-19"></path>
        <path d="M12.8165327,0.200958624 L18.2329213,0.200958624 L18.2329213,12.0353472 C18.2329213,14.6719612 17.5149217,16.662337 16.0815189,18.0052785 C14.6455198,19.3491768 12.6758596,20.0210063 10.5615137,20.0210063 C10.1708861,20.0210063 9.67074108,20.0293773 9.19231073,20.0210063 C8.80640367,20.0293773 8.1974494,20.0210063 7.80682176,20.0210063 C5.69153179,20.0210063 3.70889,19.3491768 2.27407102,18.0052785 C0.84043218,16.662337 0.122668646,14.6719612 0.122668646,12.0353472 L0.122668646,0.200958624 L5.53787705,0.200958624 L5.53787705,10.8373429 C5.53787705,13.7834434 6.75106501,15.0783117 9.2093048,15.1302116 C11.7650245,15.0783117 12.8165327,13.7834434 12.8165327,10.8373429 L12.8165327,0.200958624 Z" id="path-21"></path>
        <path d="M18.3578137,17.0718351 C16.1825724,19.1530955 13.629685,20.1934866 10.7024561,20.1934866 C7.77381089,20.1934866 5.35262762,19.280095 3.44103049,17.4533118 C1.52801719,15.6270069 0.573752815,13.1755107 0.573752815,10.1021716 C0.573752815,7.02955 1.54571935,4.58618561 3.4960252,2.76968673 C5.44326267,0.956775399 7.7443073,0.0481672021 10.3977429,0.0481672021 C13.0504704,0.0481672021 15.3040732,0.859193892 17.1561911,2.48052976 C19.008545,4.10138729 19.934722,6.32806334 19.934722,9.15888371 C19.934722,9.15888371 19.8143473,12.0636077 17.0594193,12.0636077 L5.87873578,12.0636077 C6.04678828,13.1283942 6.59649931,13.9989743 7.52928507,14.6767831 C8.46136274,15.3531569 9.51239892,15.6923004 10.6840458,15.6923004 C12.5720401,15.6923004 14.1248734,15.0513239 15.3451423,13.766979 L18.3578137,17.0718351 Z M13.1935038,5.49311961 C12.4526095,4.86386239 11.5509795,4.54887503 10.4862537,4.54887503 C9.4236521,4.54887503 8.44838116,4.87534257 7.56445336,5.52923434 C6.67910939,6.18288693 6.16598281,7.0659039 6.02271334,8.17804607 L14.4852894,8.17804607 C14.3642066,7.01830899 13.9346342,6.12237683 13.1935038,5.49311961 Z" id="path-23"></path>
        <path d="M13.3158214,0.200958624 L18.7312658,0.200958624 L18.7312658,12.0353472 C18.7312658,14.6719612 18.0127942,16.662337 16.5796274,18.0052785 C15.1445724,19.3491768 13.1751482,20.0210063 11.0596222,20.0210063 C10.6694666,20.0210063 10.1700297,20.0293773 9.69112733,20.0210063 C9.30522027,20.0293773 8.69555792,20.0210063 8.30493028,20.0210063 C6.18940428,20.0210063 4.20841469,19.3491768 2.77194351,18.0052785 C1.33924878,16.662337 0.620305103,14.6719612 0.620305103,12.0353472 L0.620305103,0.200958624 L6.03645763,0.200958624 L6.03645763,10.8373429 C6.03645763,13.7834434 7.24988161,15.0783117 9.70764934,15.1302116 C12.263369,15.0783117 13.3158214,13.7834434 13.3158214,10.8373429 L13.3158214,0.200958624 Z" id="path-25"></path>
        <polygon id="path-27" points="15.8087574 26.1681074 15.8087574 15.9550547 5.61184184 15.9550547 5.61184184 26.1681074 0.0828675606 26.1681074 0.0828675606 0.726360382 5.61184184 0.726360382 5.61184184 10.7942367 15.8087574 10.7942367 15.8087574 0.726360382 21.3377317 0.726360382 21.3377317 26.1681074"></polygon>
        <path d="M12.2222786,6.1849455 C12.2222786,9.60579916 9.4888292,12.3756311 6.11031318,12.3756311 C2.73533759,12.3756311 0,9.60579916 0,6.1849455 C0,2.76720106 2.73533759,-2.16219273e-14 6.11031318,-2.16219273e-14 C9.4888292,-2.16219273e-14 12.2222786,2.76720106 12.2222786,6.1849455 Z" id="path-29"></path>
    </defs>
    <g id="Page-1" stroke="none" stroke-width="1" fill="none" fill-rule="evenodd">
        <g id="Home" transform="translate(-30.000000, -30.000000)">
            <g id="Group-11" transform="translate(0.000000, 0.042768)">
                <g id="Logo" transform="translate(30.211595, 30.069165)">
                    <g id="Group-12" transform="translate(0.000000, 32.974417)">
                        <mask id="mask-2" fill="white">
                            <use xlink:href="#path-1"></use>
                        </mask>
                        <g id="Clip-11"></g>
                        <polygon id="Fill-10" fill="#DD89E0" mask="url(#mask-2)" points="-11.8014392 24.3341491 24.0305626 24.3341491 24.0305626 -11.9586137 -11.8014392 -11.9586137"></polygon>
                    </g>
                    <g id="Group-15" transform="translate(16.249166, 32.974417)">
                        <mask id="mask-4" fill="white">
                            <use xlink:href="#path-3"></use>
                        </mask>
                        <g id="Clip-14"></g>
                        <polygon id="Fill-13" fill="#6599FE" mask="url(#mask-4)" points="-11.8014392 24.3341491 24.0247091 24.3341491 24.0247091 -11.9586137 -11.8014392 -11.9586137"></polygon>
                    </g>
                    <g id="Group-18" transform="translate(0.000000, 0.000000)">
                        <mask id="mask-6" fill="white">
                            <use xlink:href="#path-5"></use>
                        </mask>
                        <g id="Clip-17"></g>
                        <polygon id="Fill-16" fill="#FFAC00" mask="url(#mask-6)" points="-11.8014392 24.3363016 24.0305626 24.3363016 24.0305626 -11.9585419 -11.8014392 -11.9585419"></polygon>
                    </g>
                    <g id="Group-21" transform="translate(16.249166, 0.000000)">
                        <mask id="mask-8" fill="white">
                            <use xlink:href="#path-7"></use>
                        </mask>
                        <g id="Clip-20"></g>
                        <polygon id="Fill-19" fill="#F77D2C" mask="url(#mask-8)" points="-11.8014392 24.3363016 24.0290993 24.3363016 24.0290993 -11.9585419 -11.8014392 -11.9585419"></polygon>
                    </g>
                    <g id="Group-24" transform="translate(32.556866, 0.000000)">
                        <mask id="mask-10" fill="white">
                            <use xlink:href="#path-9"></use>
                        </mask>
                        <g id="Clip-23"></g>
                        <polygon id="Fill-22" fill="#EF659F" mask="url(#mask-10)" points="-11.8014392 24.3363016 24.0273526 24.3363016 24.0273526 -11.9585419 -11.8014392 -11.9585419"></polygon>
                    </g>
                    <g id="Group-27" transform="translate(0.000000, 16.467358)">
                        <mask id="mask-12" fill="white">
                            <use xlink:href="#path-11"></use>
                        </mask>
                        <g id="Clip-26"></g>
                        <polygon id="Fill-25" fill="#7DCDF8" mask="url(#mask-12)" points="-11.8014392 24.341085 24.0305626 24.341085 24.0305626 -11.9584702 -11.8014392 -11.9584702"></polygon>
                    </g>
                    <g id="Group-30" transform="translate(16.229103, 16.467358)">
                        <mask id="mask-14" fill="white">
                            <use xlink:href="#path-13"></use>
                        </mask>
                        <g id="Clip-29"></g>
                        <polygon id="Fill-28" fill="#C2A5EF" mask="url(#mask-14)" points="-11.8014392 24.3403675 24.0270458 24.3403675 24.0270458 -11.9586137 -11.8014392 -11.9586137"></polygon>
                    </g>
                    <g id="Group-33" transform="translate(32.492903, 16.467358)">
                        <mask id="mask-16" fill="white">
                            <use xlink:href="#path-15"></use>
                        </mask>
                        <g id="Clip-32"></g>
                        <polygon id="Fill-31" fill="#6BCD83" mask="url(#mask-16)" points="-11.8014392 24.341085 24.0238358 24.341085 24.0238358 -11.9584702 -11.8014392 -11.9584702"></polygon>
                    </g>
                    <g id="Group-36" transform="translate(57.246691, 10.274951)">
                        <mask id="mask-18" fill="white">
                            <use xlink:href="#path-17"></use>
                        </mask>
                        <use id="Clip-35" fill="#6F3996" xlink:href="#path-17"></use>
                        <polygon id="Fill-34" fill="#652D90" mask="url(#mask-18)" points="-11.7955717 37.4058129 34.7552998 37.4058129 34.7552998 -11.8833476 -11.7955717 -11.8833476"></polygon>
                    </g>
                    <g id="Group-39" transform="translate(75.368239, 15.819112)">
                        <mask id="mask-20" fill="white">
                            <use xlink:href="#path-19"></use>
                        </mask>
                        <use id="Clip-38" fill="#6F3996" xlink:href="#path-19"></use>
                        <polygon id="Fill-37" fill="#652D90" mask="url(#mask-20)" points="-11.2767472 32.1520046 32.7283414 32.1520046 32.7283414 -11.9103269 -11.2767472 -11.9103269"></polygon>
                    </g>
                    <g id="Group-42" transform="translate(98.132338, 15.971263)">
                        <mask id="mask-22" fill="white">
                            <use xlink:href="#path-21"></use>
                        </mask>
                        <use id="Clip-41" fill="#6F3996" xlink:href="#path-21"></use>
                        <polygon id="Fill-40" fill="#652D90" mask="url(#mask-22)" points="-11.6787706 31.9831119 30.0343841 31.9831119 30.0343841 -11.7576311 -11.6787706 -11.7576311"></polygon>
                    </g>
                    <g id="Group-45" transform="translate(163.459644, 15.819112)">
                        <mask id="mask-24" fill="white">
                            <use xlink:href="#path-23"></use>
                        </mask>
                        <g id="Clip-44"></g>
                        <polygon id="Fill-43" fill="#C2A5EF" mask="url(#mask-24)" points="-11.2276864 32.1520046 31.7363028 32.1520046 31.7363028 -11.9103269 -11.2276864 -11.9103269"></polygon>
                    </g>
                    <g id="Group-48" transform="translate(143.129958, 15.971263)">
                        <mask id="mask-26" fill="white">
                            <use xlink:href="#path-25"></use>
                        </mask>
                        <g id="Clip-47"></g>
                        <polygon id="Fill-46" fill="#C2A5EF" mask="url(#mask-26)" points="-11.1811341 31.9831119 30.5326106 31.9831119 30.5326106 -11.7576311 -11.1811341 -11.7576311"></polygon>
                    </g>
                    <g id="Group-51" transform="translate(119.527079, 9.514197)">
                        <mask id="mask-28" fill="white">
                            <use xlink:href="#path-27"></use>
                        </mask>
                        <g id="Clip-50"></g>
                        <polygon id="Fill-49" fill="#C2A5EF" mask="url(#mask-28)" points="-11.7185717 38.1266254 33.1391945 38.1266254 33.1391945 -11.232325 -11.7185717 -11.232325"></polygon>
                    </g>
                    <g id="Group-9" transform="translate(32.492903, 32.974417)">
                        <mask id="mask-30" fill="white">
                            <use xlink:href="#path-29"></use>
                        </mask>
                        <g id="Clip-8"></g>
                        <polygon id="Fill-7" fill="#E25674" mask="url(#mask-30)" points="-11.8014392 24.3341491 24.0238358 24.3341491 24.0238358 -11.9586137 -11.8014392 -11.9586137"></polygon>
                    </g>
                </g>
            </g>
        </g>
    </g>
</svg>